# xmcd
#
# Track frame offsets:
#	150
#	18853
#	42378
#	61000
#	81708
#	93744
#	110295
#	129205
#	153351
#	174370
#	191428
#	211009
#	233036
#	248203
#	275898
#
# Disc length: 3888 seconds
#
# Revision: 1
# Processed by: cddbd v1.5.2PL0 Copyright (c) Steve Scherf et al.
# Submitted via: audiograbber 1.81.02
#
DISCID=c30f2e0f
DTITLE=Various Artist - Gotta Have Gospel Gold [CD 1)
DYEAR=2006
DGENRE=Gospel
TTITLE0=Not Forgotten (Israel Houghton)
TTITLE1=More Life (Papa San)
TTITLE2=Victory (Tye Tribbett and G.A.)
TTITLE3=Rejoice - Clap Your Hands (Kenny Lattimore and Chante Moore)
TTITLE4=I Will (Men Of Standard)
TTITLE5=Follow Me (Virtue)
TTITLE6=Believer (Mary Mary)
TTITLE7=Hero (Kirk Franklin Feat. Dorinda Clark-Cole)
TTITLE8=I'm Sorry (21:03 Guest: J Moss)
TTITLE9=Healing (Kelly Price)
TTITLE10=Psalm 150 (J Moss)
TTITLE11=I Pray (Dave Hollister)
TTITLE12=Like U (Trin-I-Tee 5:7)
TTITLE13=Still Blessing Me (Dave Hollister u. a.)
TTITLE14=Daten-CD
EXTD=
EXTT0=
EXTT1=
EXTT2=
EXTT3=
EXTT4=
EXTT5=
EXTT6=
EXTT7=
EXTT8=
EXTT9=
EXTT10=
EXTT11=
EXTT12=
EXTT13=
EXTT14=
PLAYORDER=
